<?xml version="1.0" encoding="iso-8859-1"?>
<!-- Uploaded to: SVG Repo, www.svgrepo.com, Generator: SVG Repo Mixer Tools -->
<!DOCTYPE svg PUBLIC "-//W3C//DTD SVG 1.1//EN" "http://www.w3.org/Graphics/SVG/1.1/DTD/svg11.dtd">
<svg fill="#000000" version="1.1" id="Capa_1" xmlns="http://www.w3.org/2000/svg" xmlns:xlink="http://www.w3.org/1999/xlink" 
	 width="800px" height="800px" viewBox="0 0 184.153 184.153"
	 xml:space="preserve">
<g>
	<path d="M158.566,102.033c-10.045-2.068-20.604-3.598-30.849-4.482c1.334-8.748-10.216-14.748-17.968-16.591
		c-0.056-2.364-1.15-5.124-1.688-7.313c-0.725-2.938-1.728-5.73-3.141-8.406c-0.598-1.131-2.202-0.995-2.832,0
		c-3.089,4.874-4.161,10.718-5.354,16.27c-0.007,0.031,0.002,0.055-0.002,0.085c-6.666,2.502-11.606,8.352-13.693,15.784
		c-6.526,0.864-13.125,1.488-19.65,2.492C71.717,77.6,34.748,68.099,31.604,85.568c-6.483-5.478-16.048-2.275-14.891,7.034
		c-5.664-2.75-13.945-5.146-16.055,1.563c-2.689,8.551,3.225,15.464,11.109,15.134c-4.108,5.224-5.679,13.212-2.833,18.976
		c3.486,7.06,12.385,5.721,17.005,0.788c2.049,2.938,5.604,4.406,9.857,2.976c6.4-2.153,8.502-8.93,8.011-15.067
		c1.06,0.092,2.135,0.103,3.13,0.082c1.281-0.026,2.557-0.04,3.836-0.062c0.002,3.944,2.938,6.798,7.254,6.692
		c3.726-0.091,9.156-2.602,10.434-6.468c4.916,0.348,9.818,0.801,14.575-0.341c5.069,17.718,34.203,14.327,41.014-0.955
		c0.234-0.526,0.249-1.014,0.173-1.466c5.065,1.139,10.183,1.244,15.315,1.122c-0.997,5.211,4.139,8.31,8.995,8.062
		c2.682-0.137,5.144-1.179,7.085-3.021c1.248-1.185,2.417-3.287,2.331-5.154c0.296,0.022,0.592,0.023,0.888,0.052
		c2.679,0.255,14.828,1.666,14.176-4.229C172.273,104.574,164.019,103.155,158.566,102.033z M103.499,69.841
		c0.699,1.819,1.183,3.725,1.628,5.624c0.359,1.531,0.568,3.317,1.082,4.918c-2.352-0.215-4.597-0.079-6.701,0.384
		C100.684,77.05,101.898,73.377,103.499,69.841z M38.525,123.308c-1.135,2.198-3.356,3.795-5.817,4.084
		c-2.892,0.34-3.528-3.668-3.968-5.559c-0.601-2.586-4.959-2.067-4.686,0.634c0.499,4.949-4.39,6.296-8.252,5.398
		c-2.818-0.655-3.466-3.578-3.512-6.037c-0.084-4.489,2.284-9.266,4.972-12.741c1.19-1.539-0.366-4.298-2.283-2.959
		c-0.003,0.002-0.005,0.005-0.008,0.007c-5.362-1.21-9.773-13.127-2.929-11.264c2.417,0.658,4.654,2.037,6.758,3.354
		c1.367,0.856,3.48-0.574,2.86-2.197c-2.541-6.652,7.388-12.093,10.528-2.446c0.807,2.479,4.532,1.475,3.913-1.079
		c-2.245-9.274,3.571-12.834,12.022-10.618c8.683,2.277,12.109,9.583,9.806,17.828c-0.109,0.391-0.099,0.757-0.03,1.103
		c-2.764,0.546-5.507,1.194-8.217,1.997c-3.658,1.085-12.382,3.602-12.432,8.64c-0.027,2.734,1.436,4.148,3.423,4.877
		C40.26,118.737,39.694,121.045,38.525,123.308z M59.004,119.64c-2.866,0.738-4.2-0.573-4.856-2.707
		c3.145-0.038,6.292-0.04,9.449,0.037C62.306,118.114,60.995,119.128,59.004,119.64z M152.683,116.978
		c-0.959,1.033-2.447,1.57-3.779,1.894c-2.85,0.689-5.473-0.51-5.864-3.398c3.554-0.133,7.112-0.28,10.665-0.219
		C153.421,115.867,153.139,116.487,152.683,116.978z M162.376,111.578c-2.622-0.047-5.243-0.39-7.855-0.592
		c-10.144-0.791-20.471,1.795-30.698,1.369c-0.371-0.015-0.633,0.169-0.796,0.424c-0.917-0.48-2.127-0.365-2.937,0.823
		c-7.435,10.938-29.596,17.238-34.115,0.328c-0.51-1.909-2.827-1.511-3.368-0.026c-11.459-3.245-25.918-1.288-37.534-1.144
		c-7.641,0.095,3.961-5.308,2.612-4.76c1.698-0.691,3.482-1.19,5.241-1.697c9.851-2.836,20.134-3.666,30.26-4.972
		c1.548-0.2,2.142-1.792,1.78-2.905c4.87-7.815,10.367-13.002,20.293-12.958c4.102,0.018,8.163,1.691,11.668,3.645
		c4.617,2.574,5.383,6.683,7.248,11.047c0.4,0.935,1.334,0.96,2.065,0.562c12.673,3.131,26.306,3.326,38.666,7.457
		C170.481,110.045,164.793,111.621,162.376,111.578z"/>
	<path d="M118.333,97.831c-3.853-4.816-9.339-8.083-15.488-8.749c-5.943-0.644-11.536,4.029-12.021,9.914
		c-0.116,1.403,1.382,2.06,2.496,1.658c0.568-0.011,1.144-0.066,1.66-0.074c2.44-0.038,4.887,0.247,7.32,0.396
		c4.761,0.294,9.76,1.116,14.517,0.514C118.739,101.247,119.567,99.374,118.333,97.831z M101.133,97.217
		c-1.117-0.014-3.23-0.183-5.255-0.051c1.88-2.876,3.941-4.678,8.387-3.944c2.979,0.492,5.741,2.078,7.99,4.152
		C108.548,97.416,104.832,97.262,101.133,97.217z"/>
	<path d="M179.601,69.97c1.572-1.753,2.561-4.059,2.64-6.414c0.137-4.049-3.438-7.249-6.651-9.033
		c-5.515-3.064-12.174-2.841-16.139,0.89c-1.524-1.986-3.833-3.263-6.903-3.325c-2.548-0.052-4.877,1.117-6.378,2.917
		c-1.978-3.091-5.557-4.93-9.594-3.56c-4.757,1.614-5.232,5.627-4.047,9.451c-5.562-0.828-11.999,1.153-12.362,7.275
		c-0.341,5.752,5.248,10.161,10.541,9.692c-0.093,3.557,4.48,4.046,8.675,3.246c-3.137,11.021,15.718,15.841,21.113,9.216
		c6.019,6.052,16.908,6.55,21.577-1.617C185.359,82.958,184.909,73.723,179.601,69.97z M177.595,86.091
		c-3.549,8.323-13.013,1.365-16.42-2.729c-1.485-1.786-4.51,0.119-3.835,2.232c-0.163,2.204-1.372,3.3-3.628,3.289
		c-5.582,1.498-11.945-3.396-8.544-10.244c1.023-2.06-1.412-3.948-3.145-2.427c-1.558,1.367-6.259,3.343-7.461,0.292
		c0.348-0.233,0.69-0.484,1.017-0.781c0.988-0.899-0.059-2.39-1.235-2.122c-3.671,0.837-11.928-0.14-9.362-6.068
		c1.705-3.941,8.389-2.141,11.022-0.585c2.284,1.349,4.319-1.646,2.71-3.513c-1.755-2.036-4.415-6.619-0.371-7.775
		c3.398-0.971,4.935,3.747,5.73,6.004c0.674,1.912,3.244,1.668,3.629-0.193c0.031-0.077,0.078-0.141,0.097-0.228
		c1.331-5.901,8.479-5.311,8.327,0.971c-0.073,3.012,4.919,3.805,5.35,0.724c0.782-5.583,6.103-5.887,10.548-3.964
		c1.804,0.78,3.753,2.095,4.461,4.011c0.954,2.585-2.518,4.685-3.764,6.531c-1.119,1.659,0.714,3.669,2.475,3.218
		c0.238-0.061,0.459-0.166,0.688-0.247C179.888,75.544,179.409,81.838,177.595,86.091z"/>
</g>
</svg>